<?xml version="1.0" encoding="UTF-8"?>
<svg width="265px" height="50px" viewBox="0 0 265 50" version="1.1" xmlns="http://www.w3.org/2000/svg" xmlns:xlink="http://www.w3.org/1999/xlink">
    <title>logo weesp@1x</title>
    <g id="logo-weesp" stroke="none" stroke-width="1" fill="none" fill-rule="evenodd">
        <g id="Group" transform="translate(2.000000, 2.000000)">
            <g id="Group-28" transform="translate(56.386000, 6.897000)" fill="#002B7F">
                <path d="M17.2739,2.4146 C17.3369,2.6796 17.4109,3.2006 17.4929,3.9796 C17.5749,4.7596 17.6159,5.3266 17.6159,5.6826 C17.6159,5.8186 17.5839,5.9876 17.5199,6.1876 C17.1279,6.1796 16.7949,6.1426 16.5219,6.0786 C15.8289,5.0126 15.3409,4.3426 15.0589,4.0686 C14.5299,3.5586 13.8509,3.1256 13.0219,2.7696 C12.4109,2.5056 11.7099,2.3736 10.9169,2.3736 C9.3939,2.3736 8.0539,3.0566 6.8969,4.4226 C5.7389,5.7886 5.1609,7.8196 5.1609,10.5156 C5.1609,11.7806 5.3859,13.0106 5.8369,14.2036 C6.2889,15.3956 6.9649,16.3316 7.8679,17.0106 C8.7699,17.6886 9.8319,18.0276 11.0529,18.0276 C11.6459,18.0276 12.2739,17.9506 12.9399,17.7966 C13.2769,17.7236 13.5499,17.5786 13.7599,17.3606 C13.9059,17.2156 14.0019,16.9976 14.0469,16.7076 C14.1199,16.1816 14.1569,15.4326 14.1569,14.4616 C14.1569,13.5176 14.1429,12.8686 14.1159,12.5146 C14.0519,12.3786 13.9899,12.2896 13.9309,12.2496 C13.8719,12.2086 13.6869,12.1426 13.3779,12.0516 L12.1609,11.7256 C11.8959,11.6616 11.7319,11.5836 11.6689,11.4926 C11.6499,11.3746 11.6409,11.2876 11.6409,11.2326 C11.6409,11.1056 11.6729,10.9276 11.7369,10.6996 C11.9009,10.6446 12.0149,10.6176 12.0789,10.6176 C13.0719,10.6176 13.9329,10.6506 14.6629,10.7166 C14.9179,10.7326 15.1959,10.7406 15.4969,10.7406 L17.6569,10.7136 L18.5729,10.6856 C18.6819,10.6776 18.9869,10.6856 19.4889,10.7136 C19.4979,10.9506 19.5029,11.1506 19.5029,11.3146 C19.5029,11.4156 19.4699,11.5296 19.4069,11.6566 C19.2519,11.7496 18.9869,11.8656 18.6139,12.0046 C18.2399,12.1436 18.0299,12.2366 17.9849,12.2836 C17.9119,12.3556 17.8619,12.4706 17.8349,12.6246 C17.8069,12.7796 17.7939,13.3206 17.7939,14.2486 C17.7939,15.3226 17.7889,15.9646 17.7799,16.1736 C17.7429,16.8476 17.7249,17.2286 17.7249,17.3206 C17.7249,17.6566 17.6789,17.8666 17.5879,17.9476 C17.3329,18.2026 16.5429,18.4916 15.2159,18.8146 C13.8899,19.1376 12.3469,19.2996 10.5879,19.2996 C9.3579,19.2996 8.2889,19.2016 7.3819,19.0056 C6.4749,18.8096 5.7029,18.5196 5.0649,18.1376 C4.2079,17.6266 3.4739,17.0076 2.8639,16.2776 C2.2529,15.5486 1.7969,14.7606 1.4969,13.9126 C1.0769,12.7096 0.8679,11.5116 0.8679,10.3166 C0.8679,8.9776 1.1769,7.6196 1.7969,6.2426 C2.2529,5.2496 2.8929,4.3536 3.7179,3.5566 C4.5429,2.7586 5.5749,2.1226 6.8149,1.6486 C8.0539,1.1756 9.4029,0.9376 10.8619,0.9376 C11.0439,0.9376 11.3399,0.9606 11.7509,1.0066 C12.8619,1.0066 13.9009,1.1456 14.8679,1.4236 C15.8339,1.7016 16.6359,2.0316 17.2739,2.4146" id="Fill-2"></path>
                <path d="M29.1138,11.1372 C29.1048,10.6242 29.0048,10.1342 28.8128,9.6672 C28.6218,9.2002 28.3248,8.8372 27.9248,8.5752 C27.5228,8.3142 27.1178,8.1842 26.7078,8.1842 C26.0968,8.1842 25.5458,8.4532 25.0528,8.9912 C24.5608,9.5292 24.2828,10.2582 24.2188,11.1782 L27.3368,11.2052 C27.5368,11.2052 27.8198,11.1922 28.1838,11.1642 C28.4478,11.1392 28.6348,11.1272 28.7448,11.1272 C28.8268,11.1272 28.9498,11.1302 29.1138,11.1372 M21.1708,11.7162 C21.4068,10.9412 21.6168,10.4252 21.7998,10.1702 C22.3098,9.4212 22.8538,8.8372 23.4328,8.4182 C24.0118,7.9982 24.5338,7.7202 24.9988,7.5822 C25.5998,7.4092 26.0878,7.3232 26.4618,7.3232 C27.3178,7.3232 28.0108,7.3882 28.5398,7.5212 C29.0678,7.6532 29.5098,7.8422 29.8658,8.0882 C30.3758,8.4432 30.7858,8.8032 31.0958,9.1662 C31.4058,9.5312 31.6588,9.9592 31.8548,10.4502 C32.0508,10.9422 32.1578,11.5382 32.1768,12.2402 L30.6588,12.2142 C30.2388,12.2142 29.3188,12.1742 27.8968,12.0942 C27.3678,12.0492 27.0038,12.0262 26.8028,12.0262 C26.7388,12.0262 26.2468,12.0352 25.3268,12.0532 L24.1508,12.0532 C24.1328,12.1812 24.1238,12.2902 24.1238,12.3822 C24.1238,12.8662 24.1828,13.3762 24.3008,13.9102 C24.4198,14.4452 24.5968,14.9162 24.8348,15.3232 C25.0718,15.7292 25.3648,16.0792 25.7168,16.3712 C26.0668,16.6632 26.4288,16.8742 26.8028,17.0022 L27.5958,17.2622 C28.2978,17.2622 28.7668,17.2402 29.0048,17.1942 C29.4418,17.1032 29.8268,16.9872 30.1598,16.8452 C30.4918,16.7042 30.8958,16.4652 31.3698,16.1272 C31.6978,16.3652 31.9708,16.5782 32.1898,16.7702 C31.3878,17.6542 30.5558,18.2942 29.6948,18.6912 C28.8338,19.0872 27.8698,19.2852 26.8028,19.2852 C26.0828,19.2852 25.4948,19.2212 25.0398,19.0942 C24.4288,18.9302 23.8778,18.6792 23.3848,18.3412 C22.8928,18.0042 22.4688,17.5842 22.1138,17.0822 C21.7588,16.5802 21.4938,16.0642 21.3208,15.5352 C21.0928,14.8422 20.9788,14.2852 20.9788,13.8652 C20.9788,13.0722 21.0428,12.3552 21.1708,11.7162" id="Fill-4"></path>
                <path d="M33.7622,18.0566 C33.8352,18.0186 33.9352,17.9956 34.0632,17.9866 C34.6002,17.9506 35.0292,17.8546 35.3482,17.7006 C35.4112,17.6726 35.4502,17.6136 35.4642,17.5226 C35.4782,17.4316 35.5032,16.6036 35.5392,15.0386 L35.5392,14.2466 L35.5532,12.8406 L35.5392,11.3796 L35.5392,11.0526 C35.5392,10.6246 35.4412,10.3086 35.2452,10.1036 C35.0492,9.8996 34.5362,9.6786 33.7072,9.4416 L33.7072,8.8816 C33.8802,8.8356 34.0852,8.7856 34.3232,8.7306 C35.1612,8.5576 35.8542,8.3116 36.4012,7.9926 C36.8202,7.7466 37.2352,7.3776 37.6452,6.8856 L38.3972,6.8856 L38.3972,7.1036 L38.4382,8.1976 L38.4242,8.7036 L38.4512,8.9496 C39.3182,8.2656 40.0402,7.8146 40.6182,7.5966 C41.1982,7.3776 41.8612,7.2676 42.6082,7.2676 C43.3282,7.2676 44.0242,7.4236 44.6942,7.7326 C45.3642,8.0426 45.9222,8.5626 46.3692,9.2916 C47.0152,8.6666 47.5582,8.2276 47.9952,7.9746 C48.2962,7.8026 48.7092,7.6506 49.2332,7.5196 C49.7562,7.3886 50.2512,7.3226 50.7162,7.3226 C51.9832,7.3226 52.9852,7.7046 53.7232,8.4696 C54.4612,9.2436 54.8302,10.2896 54.8302,11.6096 L54.8302,13.7806 C54.8302,14.2266 54.8172,14.9956 54.7892,16.0886 L54.7892,17.1396 C54.7892,17.3216 54.8442,17.4996 54.9532,17.6726 C55.3092,17.8246 55.6142,17.9216 55.8692,17.9666 C56.0522,17.9936 56.2252,18.0556 56.3892,18.1536 C56.4072,18.3206 56.4302,18.4596 56.4572,18.5706 L56.4442,18.8476 C56.1882,18.8936 56.0062,18.9166 55.8972,18.9166 C55.8242,18.9166 55.6032,18.8956 55.2342,18.8546 C54.8652,18.8136 54.3972,18.7936 53.8322,18.7936 C52.4562,18.7936 51.3622,18.8346 50.5512,18.9166 C50.4872,18.6896 50.4552,18.5086 50.4552,18.3716 L50.4692,18.1816 C50.5872,18.1196 50.9792,17.9626 51.6452,17.7136 C51.7632,17.5956 51.8312,17.4906 51.8502,17.3996 C51.8952,17.1716 51.9182,16.6846 51.9182,15.9386 L51.8502,12.0896 C51.8412,11.4426 51.7902,10.9086 51.7002,10.4856 C51.6082,10.0616 51.4742,9.7296 51.2962,9.4886 C51.1182,9.2476 50.8792,9.0496 50.5782,8.8946 C50.2782,8.7406 49.9632,8.6626 49.6352,8.6626 C49.1242,8.6626 48.6052,8.8056 48.0762,9.0896 C47.5482,9.3746 47.0782,9.8066 46.6682,10.3856 L46.6412,10.7816 L46.6822,12.5316 L46.6552,13.9676 L46.6552,15.3346 L46.6412,16.5516 C46.6412,17.1526 46.7002,17.5086 46.8192,17.6176 C47.0012,17.7906 47.4482,17.9136 48.1582,17.9866 L48.5822,18.1256 C48.6552,18.3386 48.6922,18.5046 48.6922,18.6246 C48.6922,18.6896 48.6732,18.8006 48.6372,18.9576 L48.2412,18.9436 L47.6962,18.9436 L47.4092,18.9306 C46.7632,18.8666 46.0942,18.8296 45.4032,18.8206 L43.9432,18.7936 C43.5882,18.7936 42.9732,18.8346 42.1002,18.9166 L41.8562,18.8746 L41.8282,18.0566 C42.1022,17.9796 42.5952,17.9146 43.3062,17.8636 C43.3522,17.8546 43.4112,17.8366 43.4852,17.8086 C43.5842,17.6906 43.6432,17.5906 43.6612,17.5086 C43.7062,17.3266 43.7292,16.9566 43.7292,16.4006 L43.7152,13.6256 L43.7562,12.8876 C43.7562,11.4656 43.7062,10.5856 43.6052,10.2486 C43.4772,9.8106 43.2102,9.4536 42.8042,9.1756 C42.3972,8.8976 41.9102,8.7586 41.3442,8.7586 C40.6032,8.7586 39.9592,8.9336 39.4112,9.2846 C38.8632,9.6356 38.5472,9.9476 38.4652,10.2216 C38.4562,10.3306 38.4512,10.4126 38.4512,10.4676 L38.4792,10.6036 L38.4792,10.7406 C38.4792,10.8226 38.4512,10.9506 38.3972,11.1236 L38.4382,15.0476 L38.4512,17.0986 C38.4512,17.1716 38.4652,17.2896 38.4922,17.4536 L38.5602,17.6586 C38.8132,17.7386 39.0302,17.7956 39.2112,17.8316 C39.5452,17.9026 39.7982,17.9816 39.9702,18.0706 C39.9962,18.2246 40.0102,18.3336 40.0102,18.3976 C40.0102,18.5156 39.9742,18.6846 39.9022,18.9026 C39.7562,18.9116 39.6512,18.9166 39.5872,18.9166 C39.4872,18.9166 39.0312,18.8796 38.2202,18.8056 L36.7292,18.7936 C36.0182,18.7936 35.1572,18.8396 34.1452,18.9306 L33.7482,18.9166 C33.7302,18.7706 33.7122,18.6026 33.6942,18.4116 C33.6942,18.3296 33.7162,18.2106 33.7622,18.0566" id="Fill-6"></path>
                <path d="M65.8638,11.1372 C65.8548,10.6242 65.7548,10.1342 65.5628,9.6672 C65.3718,9.2002 65.0748,8.8372 64.6748,8.5752 C64.2728,8.3142 63.8678,8.1842 63.4578,8.1842 C62.8468,8.1842 62.2958,8.4532 61.8028,8.9912 C61.3108,9.5292 61.0328,10.2582 60.9688,11.1782 L64.0868,11.2052 C64.2868,11.2052 64.5698,11.1922 64.9338,11.1642 C65.1978,11.1392 65.3848,11.1272 65.4948,11.1272 C65.5768,11.1272 65.6998,11.1302 65.8638,11.1372 M57.9208,11.7162 C58.1568,10.9412 58.3668,10.4252 58.5498,10.1702 C59.0598,9.4212 59.6038,8.8372 60.1828,8.4182 C60.7618,7.9982 61.2838,7.7202 61.7488,7.5822 C62.3498,7.4092 62.8378,7.3232 63.2118,7.3232 C64.0678,7.3232 64.7608,7.3882 65.2898,7.5212 C65.8178,7.6532 66.2598,7.8422 66.6158,8.0882 C67.1258,8.4432 67.5358,8.8032 67.8458,9.1662 C68.1558,9.5312 68.4088,9.9592 68.6048,10.4502 C68.8008,10.9422 68.9078,11.5382 68.9268,12.2402 L67.4088,12.2142 C66.9888,12.2142 66.0688,12.1742 64.6468,12.0942 C64.1178,12.0492 63.7538,12.0262 63.5528,12.0262 C63.4888,12.0262 62.9968,12.0352 62.0768,12.0532 L60.9008,12.0532 C60.8828,12.1812 60.8738,12.2902 60.8738,12.3822 C60.8738,12.8662 60.9328,13.3762 61.0508,13.9102 C61.1698,14.4452 61.3468,14.9162 61.5848,15.3232 C61.8218,15.7292 62.1148,16.0792 62.4668,16.3712 C62.8168,16.6632 63.1788,16.8742 63.5528,17.0022 L64.3458,17.2622 C65.0478,17.2622 65.5168,17.2402 65.7548,17.1942 C66.1918,17.1032 66.5768,16.9872 66.9098,16.8452 C67.2418,16.7042 67.6458,16.4652 68.1198,16.1272 C68.4478,16.3652 68.7208,16.5782 68.9398,16.7702 C68.1378,17.6542 67.3058,18.2942 66.4448,18.6912 C65.5838,19.0872 64.6198,19.2852 63.5528,19.2852 C62.8328,19.2852 62.2448,19.2212 61.7898,19.0942 C61.1788,18.9302 60.6278,18.6792 60.1348,18.3412 C59.6428,18.0042 59.2188,17.5842 58.8638,17.0822 C58.5088,16.5802 58.2438,16.0642 58.0708,15.5352 C57.8428,14.8422 57.7288,14.2852 57.7288,13.8652 C57.7288,13.0722 57.7928,12.3552 57.9208,11.7162" id="Fill-8"></path>
                <path d="M78.9888,11.1372 C78.9798,10.6242 78.8798,10.1342 78.6878,9.6672 C78.4968,9.2002 78.1998,8.8372 77.7998,8.5752 C77.3978,8.3142 76.9928,8.1842 76.5828,8.1842 C75.9718,8.1842 75.4208,8.4532 74.9278,8.9912 C74.4358,9.5292 74.1578,10.2582 74.0938,11.1782 L77.2118,11.2052 C77.4118,11.2052 77.6948,11.1922 78.0588,11.1642 C78.3228,11.1392 78.5098,11.1272 78.6198,11.1272 C78.7018,11.1272 78.8248,11.1302 78.9888,11.1372 M71.0458,11.7162 C71.2818,10.9412 71.4918,10.4252 71.6748,10.1702 C72.1848,9.4212 72.7288,8.8372 73.3078,8.4182 C73.8868,7.9982 74.4088,7.7202 74.8738,7.5822 C75.4748,7.4092 75.9628,7.3232 76.3368,7.3232 C77.1928,7.3232 77.8858,7.3882 78.4148,7.5212 C78.9428,7.6532 79.3848,7.8422 79.7408,8.0882 C80.2508,8.4432 80.6608,8.8032 80.9708,9.1662 C81.2808,9.5312 81.5338,9.9592 81.7298,10.4502 C81.9258,10.9422 82.0328,11.5382 82.0518,12.2402 L80.5338,12.2142 C80.1138,12.2142 79.1938,12.1742 77.7718,12.0942 C77.2428,12.0492 76.8788,12.0262 76.6778,12.0262 C76.6138,12.0262 76.1218,12.0352 75.2018,12.0532 L74.0258,12.0532 C74.0078,12.1812 73.9988,12.2902 73.9988,12.3822 C73.9988,12.8662 74.0578,13.3762 74.1758,13.9102 C74.2948,14.4452 74.4718,14.9162 74.7098,15.3232 C74.9468,15.7292 75.2398,16.0792 75.5918,16.3712 C75.9418,16.6632 76.3038,16.8742 76.6778,17.0022 L77.4708,17.2622 C78.1728,17.2622 78.6418,17.2402 78.8798,17.1942 C79.3168,17.1032 79.7018,16.9872 80.0348,16.8452 C80.3668,16.7042 80.7708,16.4652 81.2448,16.1272 C81.5728,16.3652 81.8458,16.5782 82.0648,16.7702 C81.2628,17.6542 80.4308,18.2942 79.5698,18.6912 C78.7088,19.0872 77.7448,19.2852 76.6778,19.2852 C75.9578,19.2852 75.3698,19.2212 74.9148,19.0942 C74.3038,18.9302 73.7528,18.6792 73.2598,18.3412 C72.7678,18.0042 72.3438,17.5842 71.9888,17.0822 C71.6338,16.5802 71.3688,16.0642 71.1958,15.5352 C70.9678,14.8422 70.8538,14.2852 70.8538,13.8652 C70.8538,13.0722 70.9178,12.3552 71.0458,11.7162" id="Fill-10"></path>
                <path d="M83.5552,18.2852 C83.7922,18.1762 84.0112,18.1032 84.2112,18.0662 C84.7122,17.9842 85.0042,17.9152 85.0862,17.8612 C85.2232,17.7792 85.3142,17.6792 85.3602,17.5592 C85.4142,17.3772 85.4422,16.9752 85.4422,16.3552 L85.4422,15.1642 L85.4552,14.1922 L85.4142,12.7542 L85.4142,11.8922 C85.4142,11.3172 85.3682,10.8472 85.2782,10.4822 C85.2412,10.3452 85.1272,10.2082 84.9362,10.0712 C84.6802,9.8892 84.2472,9.7112 83.6372,9.5372 L83.6232,8.8812 C83.7422,8.8452 83.8492,8.8202 83.9452,8.8062 C84.0402,8.7922 84.4072,8.7032 85.0452,8.5392 C85.5462,8.3572 85.8702,8.2302 86.0162,8.1572 C86.0612,8.1292 86.1342,8.0882 86.2352,8.0342 C86.3442,7.9432 86.4672,7.8512 86.6042,7.7602 C86.8772,7.5692 87.2052,7.2362 87.5882,6.7622 L88.3262,6.7072 L88.2992,8.2522 C88.2812,8.4082 88.2722,8.5312 88.2722,8.6222 C88.2722,8.6952 88.2812,8.9052 88.2992,9.2512 C89.0552,8.5952 89.7422,8.1392 90.3592,7.8832 C91.1702,7.5462 91.9392,7.3772 92.6682,7.3772 C93.5212,7.3772 94.2732,7.5902 94.9202,8.0142 C95.5642,8.4392 95.9882,8.9302 96.1872,9.4872 C96.3882,10.0442 96.4882,11.1672 96.4882,12.8562 L96.4332,17.3222 C96.4332,17.5322 96.4712,17.7052 96.5432,17.8432 C96.6352,17.9052 96.8852,17.9692 97.2952,18.0352 L97.9652,18.1642 C98.0472,18.2812 98.0882,18.4252 98.0882,18.5952 C98.0882,18.7032 98.0842,18.8512 98.0742,19.0392 L95.3942,18.8482 L94.6012,18.8752 L93.9722,18.8752 L92.1682,18.9982 L91.7032,18.9982 C91.6952,18.8842 91.6892,18.7962 91.6892,18.7342 C91.6892,18.5752 91.6992,18.4032 91.7172,18.2182 C91.8462,18.1912 92.1642,18.1452 92.6742,18.0812 C92.8102,18.0632 92.9612,18.0312 93.1252,17.9852 C93.3082,17.9122 93.4122,17.8392 93.4392,17.7662 C93.5132,17.6112 93.5492,17.3152 93.5492,16.8762 C93.5492,16.1102 93.5452,15.5212 93.5352,15.1102 L93.5492,13.5222 C93.5492,11.5972 93.4262,10.3962 93.1812,9.9222 C92.8362,9.2372 92.3182,8.8952 91.6272,8.8952 C91.1172,8.8952 90.5902,9.0252 90.0452,9.2852 C89.4992,9.5452 88.9352,9.9402 88.3542,10.4702 L88.3262,10.7022 L88.3542,11.5632 L88.3262,12.4792 L88.3812,14.6672 L88.3542,15.0092 C88.3542,16.4952 88.4132,17.3342 88.5332,17.5252 C88.6532,17.7172 89.1072,17.9302 89.8982,18.1642 C89.9262,18.3202 89.9392,18.4332 89.9392,18.5062 C89.9392,18.6162 89.9082,18.7852 89.8442,19.0122 C89.5602,19.0212 89.3222,19.0262 89.1312,19.0262 C88.9392,19.0262 88.6382,18.9952 88.2262,18.9332 L86.7612,18.9032 C86.0302,18.9032 84.9752,18.9352 83.5962,18.9982 C83.5592,18.9092 83.5412,18.8142 83.5412,18.7162 C83.5412,18.6442 83.5462,18.5002 83.5552,18.2852" id="Fill-12"></path>
                <path d="M99.2637,8.603 C100.3387,8.148 101.1167,7.702 101.5947,7.265 C102.0737,6.828 102.5857,6.118 103.1327,5.135 L103.8987,5.135 C103.9807,5.373 104.0217,5.623 104.0217,5.887 C104.0217,6.361 104.0167,6.73 104.0077,6.995 L103.9667,7.801 C103.9667,7.847 103.9717,7.952 103.9807,8.116 L104.2947,8.129 C104.3407,8.129 104.7687,8.111 105.5797,8.075 C105.6437,8.075 105.9857,8.066 106.6057,8.047 C106.6597,8.291 106.6877,8.508 106.6877,8.697 C106.6877,8.905 106.6557,9.148 106.5917,9.428 C106.2907,9.483 106.0637,9.51 105.9087,9.51 C105.8347,9.51 105.6897,9.492 105.4707,9.456 L104.7597,9.456 L104.5137,9.442 L103.8577,9.483 L103.8297,14.706 C103.8217,15.717 103.8417,16.349 103.8917,16.599 C103.9417,16.85 104.0487,17.089 104.2127,17.317 C104.4227,17.417 104.6557,17.467 104.9097,17.467 C105.1567,17.467 105.3387,17.445 105.4567,17.399 C105.5757,17.353 105.7767,17.222 106.0587,17.003 C106.1137,16.958 106.2007,16.894 106.3187,16.812 C106.5367,16.985 106.7147,17.158 106.8517,17.331 L106.9067,17.495 C106.5867,17.996 106.1387,18.39 105.5597,18.677 C104.9807,18.964 104.3637,19.108 103.7067,19.108 C102.8597,19.108 102.1707,18.839 101.6427,18.303 C101.1147,17.766 100.8497,16.933 100.8497,15.804 L100.9047,13.401 L100.9047,9.51 L100.4807,9.483 L99.4957,9.51 L99.3187,9.442 C99.2637,9.361 99.2367,9.284 99.2367,9.212 C99.2367,9.158 99.2447,8.955 99.2637,8.603" id="Fill-14"></path>
                <path d="M116.3262,11.1372 C116.3172,10.6242 116.2172,10.1342 116.0252,9.6672 C115.8342,9.2002 115.5382,8.8372 115.1372,8.5752 C114.7352,8.3142 114.3302,8.1842 113.9202,8.1842 C113.3092,8.1842 112.7582,8.4532 112.2652,8.9912 C111.7732,9.5292 111.4952,10.2582 111.4312,11.1782 L114.5492,11.2052 C114.7492,11.2052 115.0322,11.1922 115.3962,11.1642 C115.6612,11.1392 115.8472,11.1272 115.9572,11.1272 C116.0392,11.1272 116.1622,11.1302 116.3262,11.1372 M108.3832,11.7162 C108.6202,10.9412 108.8292,10.4252 109.0122,10.1702 C109.5222,9.4212 110.0662,8.8372 110.6452,8.4182 C111.2242,7.9982 111.7462,7.7202 112.2112,7.5822 C112.8122,7.4092 113.3002,7.3232 113.6742,7.3232 C114.5302,7.3232 115.2232,7.3882 115.7522,7.5212 C116.2802,7.6532 116.7222,7.8422 117.0782,8.0882 C117.5892,8.4432 117.9992,8.8032 118.3082,9.1662 C118.6182,9.5312 118.8712,9.9592 119.0672,10.4502 C119.2642,10.9422 119.3702,11.5382 119.3892,12.2402 L117.8712,12.2142 C117.4522,12.2142 116.5312,12.1742 115.1092,12.0942 C114.5812,12.0492 114.2162,12.0262 114.0152,12.0262 C113.9522,12.0262 113.4602,12.0352 112.5392,12.0532 L111.3632,12.0532 C111.3452,12.1812 111.3362,12.2902 111.3362,12.3822 C111.3362,12.8662 111.3952,13.3762 111.5132,13.9102 C111.6322,14.4452 111.8092,14.9162 112.0472,15.3232 C112.2842,15.7292 112.5782,16.0792 112.9292,16.3712 C113.2792,16.6632 113.6412,16.8742 114.0152,17.0022 L114.8082,17.2622 C115.5112,17.2622 115.9792,17.2402 116.2172,17.1942 C116.6542,17.1032 117.0392,16.9872 117.3722,16.8452 C117.7052,16.7042 118.1082,16.4652 118.5822,16.1272 C118.9102,16.3652 119.1832,16.5782 119.4022,16.7702 C118.6002,17.6542 117.7682,18.2942 116.9072,18.6912 C116.0462,19.0872 115.0822,19.2852 114.0152,19.2852 C113.2962,19.2852 112.7082,19.2212 112.2522,19.0942 C111.6412,18.9302 111.0902,18.6792 110.5972,18.3412 C110.1052,18.0042 109.6812,17.5842 109.3262,17.0822 C108.9712,16.5802 108.7062,16.0642 108.5332,15.5352 C108.3052,14.8422 108.1912,14.2852 108.1912,13.8652 C108.1912,13.0722 108.2552,12.3552 108.3832,11.7162" id="Fill-16"></path>
                <path d="M127.373,2.2642 L127.305,1.4162 C127.414,1.3622 127.501,1.3342 127.564,1.3342 C128.321,1.3842 129.077,1.4212 129.834,1.4452 C130.144,1.4532 130.345,1.4572 130.436,1.4572 C130.764,1.4572 131.146,1.4442 131.584,1.4162 L133.361,1.3342 C133.425,1.3712 133.466,1.4212 133.484,1.4852 L133.375,2.1142 C133.202,2.2232 133.033,2.3192 132.869,2.4012 C132.505,2.6012 132.322,2.7652 132.322,2.8932 C132.322,3.0122 132.368,3.1622 132.459,3.3442 C132.514,3.4532 132.587,3.6402 132.678,3.9052 C132.833,4.3512 133.27,5.4362 133.99,7.1592 L137.531,15.4162 C137.996,14.5512 138.721,13.0922 139.705,11.0412 L137.706,6.2292 C137.334,5.3272 137.011,4.5842 136.736,4.0002 C136.644,3.8092 136.566,3.6272 136.502,3.4532 C136.447,3.3632 136.374,3.2282 136.282,3.0502 C136.191,2.8722 136.049,2.7272 135.856,2.6132 C135.664,2.4992 135.206,2.3552 134.482,2.1822 L134.537,1.3622 C134.829,1.3622 135.229,1.3752 135.74,1.4032 C136.478,1.4572 136.952,1.4852 137.162,1.4852 L139.076,1.4572 L141.441,1.3212 C141.487,1.3302 141.551,1.3342 141.633,1.3342 L141.646,1.7992 L141.646,1.9632 C141.646,2.0182 141.628,2.0912 141.592,2.1822 C141.436,2.2282 141.19,2.2692 140.853,2.3052 C140.616,2.3242 140.45,2.3732 140.354,2.4552 C140.259,2.5372 140.211,2.6332 140.211,2.7432 C140.211,3.0162 140.307,3.3492 140.498,3.7412 C140.58,3.9142 140.689,4.1782 140.826,4.5342 C141.282,5.7012 141.633,6.5532 141.879,7.0902 L142.836,5.1082 C143.273,4.1972 143.561,3.5272 143.697,3.0982 C143.725,3.0072 143.738,2.9302 143.738,2.8662 L143.738,2.7842 C143.629,2.6652 143.528,2.5832 143.437,2.5372 C143.21,2.4372 142.822,2.3192 142.275,2.1822 C142.257,2.0092 142.248,1.8772 142.248,1.7852 C142.248,1.6852 142.262,1.5352 142.289,1.3342 C142.59,1.3342 143.442,1.3572 144.846,1.4032 C145.675,1.4302 146.204,1.4442 146.432,1.4442 C146.623,1.4442 146.792,1.4422 146.937,1.4372 C147.083,1.4322 147.238,1.4302 147.402,1.4302 L147.43,1.5392 L147.389,2.1552 L147.361,2.2232 C146.377,2.5062 145.789,2.7112 145.598,2.8382 C145.406,2.9662 145.224,3.1762 145.051,3.4672 C144.595,4.2692 143.752,5.9472 142.521,8.4982 L142.576,8.6212 L143.451,10.6452 L144.941,14.1592 C145.097,14.5052 145.206,14.7602 145.269,14.9242 L146.992,10.4122 L149.398,4.2742 L149.781,3.1252 C149.8,3.0532 149.809,2.9802 149.809,2.9072 L149.768,2.6742 C149.458,2.5742 149.205,2.4992 149.009,2.4492 C148.812,2.3992 148.642,2.3282 148.496,2.2372 C148.469,1.9362 148.455,1.7492 148.455,1.6762 C148.455,1.6032 148.487,1.5082 148.551,1.3892 L148.769,1.3622 L150.82,1.4442 L152.174,1.3622 L152.461,1.4032 C152.488,1.5672 152.502,1.7132 152.502,1.8402 C152.502,2.0042 152.47,2.1372 152.406,2.2372 C152.36,2.3012 152.269,2.3552 152.133,2.4012 C151.759,2.5832 151.503,2.7562 151.366,2.9202 C151.266,3.0302 151.125,3.3352 150.942,3.8362 C150.149,5.9692 149.331,8.0252 148.488,10.0022 C147.645,11.9802 146.391,15.1292 144.723,19.4502 L143.357,19.4632 C143.267,19.1352 143.166,18.8572 143.057,18.6292 C142.792,18.0372 142.638,17.6632 142.592,17.5082 L141.074,14.0082 C140.828,13.4252 140.627,12.9922 140.472,12.7092 C140.444,12.6642 140.408,12.6002 140.362,12.5182 C140.344,12.5642 139.861,13.4772 138.914,15.2592 C137.967,17.0412 137.273,18.4332 136.834,19.4362 L135.439,19.4502 C135.111,18.4472 134.469,16.9072 133.512,14.8282 L129.096,4.4932 C128.631,3.4452 128.298,2.8202 128.098,2.6192 C128.024,2.5472 127.888,2.4692 127.687,2.3872 C127.614,2.3602 127.51,2.3192 127.373,2.2642" id="Fill-18"></path>
                <path d="M159.2158,11.1372 C159.2068,10.6242 159.1068,10.1342 158.9148,9.6672 C158.7238,9.2002 158.4278,8.8372 158.0268,8.5752 C157.6248,8.3142 157.2198,8.1842 156.8098,8.1842 C156.1988,8.1842 155.6478,8.4532 155.1548,8.9912 C154.6628,9.5292 154.3848,10.2582 154.3208,11.1782 L157.4388,11.2052 C157.6388,11.2052 157.9218,11.1922 158.2858,11.1642 C158.5508,11.1392 158.7368,11.1272 158.8468,11.1272 C158.9288,11.1272 159.0518,11.1302 159.2158,11.1372 M151.2728,11.7162 C151.5098,10.9412 151.7188,10.4252 151.9018,10.1702 C152.4118,9.4212 152.9558,8.8372 153.5348,8.4182 C154.1138,7.9982 154.6358,7.7202 155.1008,7.5822 C155.7018,7.4092 156.1898,7.3232 156.5638,7.3232 C157.4198,7.3232 158.1128,7.3882 158.6418,7.5212 C159.1698,7.6532 159.6118,7.8422 159.9678,8.0882 C160.4788,8.4432 160.8888,8.8032 161.1978,9.1662 C161.5078,9.5312 161.7608,9.9592 161.9568,10.4502 C162.1538,10.9422 162.2598,11.5382 162.2788,12.2402 L160.7608,12.2142 C160.3418,12.2142 159.4208,12.1742 157.9988,12.0942 C157.4708,12.0492 157.1058,12.0262 156.9048,12.0262 C156.8418,12.0262 156.3498,12.0352 155.4288,12.0532 L154.2528,12.0532 C154.2348,12.1812 154.2258,12.2902 154.2258,12.3822 C154.2258,12.8662 154.2848,13.3762 154.4028,13.9102 C154.5218,14.4452 154.6988,14.9162 154.9368,15.3232 C155.1738,15.7292 155.4678,16.0792 155.8188,16.3712 C156.1688,16.6632 156.5308,16.8742 156.9048,17.0022 L157.6978,17.2622 C158.4008,17.2622 158.8688,17.2402 159.1068,17.1942 C159.5438,17.1032 159.9288,16.9872 160.2618,16.8452 C160.5948,16.7042 160.9978,16.4652 161.4718,16.1272 C161.7998,16.3652 162.0728,16.5782 162.2918,16.7702 C161.4898,17.6542 160.6578,18.2942 159.7968,18.6912 C158.9358,19.0872 157.9718,19.2852 156.9048,19.2852 C156.1858,19.2852 155.5978,19.2212 155.1418,19.0942 C154.5308,18.9302 153.9798,18.6792 153.4868,18.3412 C152.9948,18.0042 152.5708,17.5842 152.2158,17.0822 C151.8608,16.5802 151.5958,16.0642 151.4228,15.5352 C151.1948,14.8422 151.0808,14.2852 151.0808,13.8652 C151.0808,13.0722 151.1448,12.3552 151.2728,11.7162" id="Fill-20"></path>
                <path d="M172.3408,11.1372 C172.3318,10.6242 172.2318,10.1342 172.0398,9.6672 C171.8488,9.2002 171.5528,8.8372 171.1518,8.5752 C170.7498,8.3142 170.3448,8.1842 169.9348,8.1842 C169.3238,8.1842 168.7728,8.4532 168.2798,8.9912 C167.7878,9.5292 167.5098,10.2582 167.4458,11.1782 L170.5638,11.2052 C170.7638,11.2052 171.0468,11.1922 171.4108,11.1642 C171.6758,11.1392 171.8618,11.1272 171.9718,11.1272 C172.0538,11.1272 172.1768,11.1302 172.3408,11.1372 M164.3978,11.7162 C164.6348,10.9412 164.8438,10.4252 165.0268,10.1702 C165.5368,9.4212 166.0808,8.8372 166.6598,8.4182 C167.2388,7.9982 167.7608,7.7202 168.2258,7.5822 C168.8268,7.4092 169.3148,7.3232 169.6888,7.3232 C170.5448,7.3232 171.2378,7.3882 171.7668,7.5212 C172.2948,7.6532 172.7368,7.8422 173.0928,8.0882 C173.6038,8.4432 174.0138,8.8032 174.3228,9.1662 C174.6328,9.5312 174.8858,9.9592 175.0818,10.4502 C175.2788,10.9422 175.3848,11.5382 175.4038,12.2402 L173.8858,12.2142 C173.4668,12.2142 172.5458,12.1742 171.1238,12.0942 C170.5958,12.0492 170.2308,12.0262 170.0298,12.0262 C169.9668,12.0262 169.4748,12.0352 168.5538,12.0532 L167.3778,12.0532 C167.3598,12.1812 167.3508,12.2902 167.3508,12.3822 C167.3508,12.8662 167.4098,13.3762 167.5278,13.9102 C167.6468,14.4452 167.8238,14.9162 168.0618,15.3232 C168.2988,15.7292 168.5928,16.0792 168.9438,16.3712 C169.2938,16.6632 169.6558,16.8742 170.0298,17.0022 L170.8228,17.2622 C171.5258,17.2622 171.9938,17.2402 172.2318,17.1942 C172.6688,17.1032 173.0538,16.9872 173.3868,16.8452 C173.7198,16.7042 174.1228,16.4652 174.5968,16.1272 C174.9248,16.3652 175.1978,16.5782 175.4168,16.7702 C174.6148,17.6542 173.7828,18.2942 172.9218,18.6912 C172.0608,19.0872 171.0968,19.2852 170.0298,19.2852 C169.3108,19.2852 168.7228,19.2212 168.2668,19.0942 C167.6558,18.9302 167.1048,18.6792 166.6118,18.3412 C166.1198,18.0042 165.6958,17.5842 165.3408,17.0822 C164.9858,16.5802 164.7208,16.0642 164.5478,15.5352 C164.3198,14.8422 164.2058,14.2852 164.2058,13.8652 C164.2058,13.0722 164.2698,12.3552 164.3978,11.7162" id="Fill-22"></path>
                <path d="M177.5908,15.1431 C177.8638,15.0881 178.0648,15.0611 178.1928,15.0611 C178.2558,15.0611 178.3518,15.0661 178.4798,15.0751 L178.6028,15.2111 C179.0948,16.0781 179.4178,16.6011 179.5728,16.7841 C179.8928,17.1581 180.2068,17.4581 180.5168,17.6861 C180.7268,17.8321 181.0548,17.9821 181.5008,18.1371 C181.8018,18.2471 182.1208,18.3011 182.4578,18.3011 C183.0318,18.3011 183.5248,18.1171 183.9348,17.7471 C184.3448,17.3781 184.5498,16.9801 184.5498,16.5511 C184.5498,16.2601 184.4728,16.0111 184.3178,15.8061 C184.1618,15.6011 183.8528,15.3981 183.3878,15.1981 C183.1598,15.0981 182.5878,14.9341 181.6718,14.7051 C180.7558,14.4781 180.2018,14.3281 180.0108,14.2541 C179.5818,14.0901 179.2018,13.8631 178.8688,13.5711 C178.5358,13.2791 178.2828,12.9511 178.1108,12.5861 C177.8728,12.0671 177.7548,11.6211 177.7548,11.2471 C177.7548,10.5541 177.8558,9.9871 178.0558,9.5441 C178.2558,9.1021 178.5388,8.7131 178.9038,8.3751 C179.1678,8.1211 179.5668,7.8881 180.0998,7.6781 C180.6328,7.4691 181.2048,7.3641 181.8158,7.3641 C182.6818,7.3641 183.4428,7.4231 184.0988,7.5411 C184.7548,7.6601 185.3108,7.8381 185.7668,8.0751 C185.8208,8.2851 185.8988,8.7681 185.9988,9.5241 C186.0998,10.2811 186.1498,10.7271 186.1498,10.8641 C186.1498,10.9281 186.1358,10.9961 186.1088,11.0691 C185.8708,11.1421 185.6758,11.1781 185.5208,11.1781 C185.4298,11.1781 185.2968,11.1691 185.1238,11.1511 C185.0418,11.0231 184.9328,10.8321 184.7958,10.5771 C184.3588,9.7661 183.9088,9.1941 183.4488,8.8611 C182.9888,8.5281 182.4578,8.3621 181.8568,8.3621 C181.2278,8.3621 180.6988,8.5441 180.2708,8.9091 C179.9608,9.1731 179.8058,9.5331 179.8058,9.9891 C179.8058,10.2891 179.9678,10.5951 180.2908,10.9051 C180.6058,11.2241 181.1598,11.4651 181.9548,11.6291 C183.1518,11.8941 184.0328,12.1581 184.5998,12.4221 C185.4208,12.8051 185.9988,13.2561 186.3328,13.7761 C186.6658,14.2951 186.8328,14.8971 186.8328,15.5811 C186.8328,16.6381 186.4348,17.5201 185.6368,18.2261 C184.8388,18.9331 183.6748,19.2861 182.1438,19.2861 C181.9438,19.2861 181.4188,19.2401 180.5708,19.1491 C180.1888,19.1031 179.7368,19.0121 179.2178,18.8751 C179.0898,18.8391 178.7578,18.7071 178.2198,18.4791 C178.1188,18.4241 178.0488,18.3581 178.0078,18.2811 C177.9668,18.2041 177.9048,17.8231 177.8228,17.1391 C177.6778,16.0271 177.5998,15.3621 177.5908,15.1431" id="Fill-24"></path>
                <path d="M193.1406,16.1411 C193.1766,16.2501 193.1996,16.3321 193.2086,16.3871 C193.3096,16.8071 193.4366,17.1031 193.5916,17.2761 C193.8756,17.6041 194.2006,17.8231 194.5656,17.9321 C195.1136,18.0871 195.5926,18.1641 196.0036,18.1641 C196.4786,18.1641 196.9426,18.0641 197.3946,17.8641 C197.8456,17.6631 198.2086,17.3941 198.4836,17.0571 C198.5196,17.0121 198.5756,16.9481 198.6476,16.8661 C198.7106,16.7201 198.7616,16.6111 198.7976,16.5371 C199.1616,15.8271 199.3426,15.0701 199.3426,14.2681 C199.3426,12.7911 198.9046,11.5471 198.0276,10.5361 C197.4146,9.8161 196.5476,9.4551 195.4236,9.4551 C194.7566,9.4551 193.9986,9.6291 193.1496,9.9751 C193.1306,10.3301 193.1216,11.3281 193.1216,12.9691 L193.1496,15.6081 C193.1496,15.6721 193.1466,15.8491 193.1406,16.1411 L193.1406,16.1411 Z M187.9676,25.9161 L187.9676,25.3011 C188.1316,25.2011 188.2496,25.1331 188.3236,25.0961 L189.3756,24.7131 C189.8136,24.5411 190.0596,24.4041 190.1146,24.3051 C190.2596,24.0311 190.3246,23.5491 190.3056,22.8551 L190.2096,17.4191 L190.0736,10.6571 C190.0456,10.1651 189.9416,9.8151 189.7586,9.6051 C189.5766,9.3961 189.0936,9.1771 188.3096,8.9501 L188.2956,8.2391 C189.1896,8.0661 189.9416,7.8511 190.5516,7.5961 C190.9976,7.4141 191.6046,7.0681 192.3696,6.5571 L193.0676,6.5301 L193.0806,6.9121 L193.0676,8.3891 C193.0676,8.4441 193.0726,8.5801 193.0806,8.7991 C193.8736,8.3161 194.5256,7.9971 195.0366,7.8421 C195.7836,7.6231 196.6086,7.5141 197.5106,7.5141 C198.4406,7.5141 199.2656,7.7511 199.9856,8.2251 C200.0396,8.2621 200.1176,8.3121 200.2176,8.3751 C200.6736,8.7031 201.0056,9.0181 201.2156,9.3191 C201.6716,9.9661 201.9996,10.6041 202.2006,11.2331 C202.3556,11.7071 202.4326,12.2991 202.4326,13.0101 C202.4326,13.9581 202.3096,14.7601 202.0636,15.4161 C201.8176,16.0731 201.3936,16.7341 200.7916,17.3991 C200.1906,18.0641 199.5456,18.5381 198.8576,18.8211 C198.1686,19.1031 197.4476,19.2451 196.6906,19.2451 C195.9436,19.2451 195.4106,19.1991 195.0906,19.1081 C194.4806,18.9351 193.8736,18.6801 193.2726,18.3421 C193.2446,18.4881 193.2316,18.5881 193.2316,18.6431 L193.2726,19.0121 C193.2816,19.1121 193.2866,19.2351 193.2866,19.3811 C193.2866,19.4451 193.2776,19.8051 193.2586,20.4611 L193.3136,22.9491 C193.3136,23.0041 193.3046,23.1871 193.2866,23.4961 L193.2866,23.6461 C193.2866,23.9841 193.3096,24.2301 193.3576,24.3851 C193.3956,24.4761 193.4766,24.5761 193.6006,24.6851 C193.6916,24.7231 193.7786,24.7641 193.8606,24.8081 C194.1426,24.8631 194.3916,24.9181 194.6056,24.9731 C194.8196,25.0271 195.0446,25.0741 195.2826,25.1091 C195.3646,25.2111 195.4056,25.3421 195.4056,25.5061 C195.4056,25.6071 195.4006,25.7521 195.3916,25.9431 L195.1456,25.9431 C194.6156,25.9431 194.2446,25.9351 194.0356,25.9161 L191.9666,25.7381 L191.4606,25.7381 L190.9816,25.7241 L190.5016,25.7661 L189.7616,25.8071 C189.4886,25.8161 189.1866,25.8401 188.8586,25.8751 C188.5296,25.9121 188.2916,25.9301 188.1456,25.9301 L187.9676,25.9161 Z" id="Fill-26"></path>
            </g>
            <line x1="57.5877" y1="44.4273" x2="258.4897" y2="44.4273" id="Stroke-29" stroke="#002B7F" stroke-width="0.916"></line>
            <polygon id="Fill-30" fill="#002B7F" points="31.197 2.664 45.487 2.664 45.487 0.606 31.197 0.606"></polygon>
            <polygon id="Fill-31" fill="#002B7F" points="31.197 6.865 45.487 6.865 45.487 4.807 31.197 4.807"></polygon>
            <polygon id="Fill-32" fill="#002B7F" points="31.197 11.066 45.487 11.066 45.487 9.008 31.197 9.008"></polygon>
            <polygon id="Fill-33" fill="#002B7F" points="31.197 15.267 45.487 15.267 45.487 13.209 31.197 13.209"></polygon>
            <polygon id="Fill-34" fill="#002B7F" points="31.197 19.469 45.487 19.469 45.487 17.411 31.197 17.411"></polygon>
            <polygon id="Fill-35" fill="#002B7F" points="31.197 23.669 45.487 23.669 45.487 21.611 31.197 21.611"></polygon>
            <polygon id="Fill-36" fill="#002B7F" points="45.4871 27.8716 38.3421 27.8716 31.1971 27.8716 31.1971 26.8426 31.1971 25.8126 38.3421 25.8126 45.4871 25.8126 45.4871 26.8426"></polygon>
            <path d="M43.638,34.2154 C43.488,34.3694 43.334,34.5174 43.179,34.6544 C41.986,35.7154 40.714,36.2734 40.4,36.2734" id="Fill-37" fill="#000000"></path>
            <path d="M31.1975,34.2154 L31.1975,35.2434 L31.1975,36.2734 L38.3425,36.2734 L40.4005,36.2734 C40.7145,36.2734 41.9865,35.7154 43.1785,34.6544 C43.3345,34.5174 43.4875,34.3694 43.6375,34.2154 L38.3425,34.2154 L31.1975,34.2154 Z" id="Fill-39" fill="#002B7F"></path>
            <path d="M31.1975,30.0132 L31.1975,31.0432 L31.1975,32.0722 L38.3425,32.0722 L45.0775,32.0722 C45.3325,31.4502 45.4875,30.7632 45.4875,30.0132 L38.3425,30.0132 L31.1975,30.0132 Z" id="Fill-41" fill="#002B7F"></path>
            <polygon id="Fill-43" fill="#002B7F" points="0.412 2.664 14.702 2.664 14.702 0.606 0.412 0.606"></polygon>
            <polygon id="Fill-45" fill="#002B7F" points="0.412 6.865 14.702 6.865 14.702 4.807 0.412 4.807"></polygon>
            <polygon id="Fill-46" fill="#002B7F" points="0.412 11.066 14.702 11.066 14.702 9.008 0.412 9.008"></polygon>
            <polygon id="Fill-47" fill="#002B7F" points="0.412 15.267 14.702 15.267 14.702 13.209 0.412 13.209"></polygon>
            <polygon id="Fill-48" fill="#002B7F" points="0.412 19.469 14.702 19.469 14.702 17.411 0.412 17.411"></polygon>
            <polygon id="Fill-49" fill="#002B7F" points="0.412 23.669 14.702 23.669 14.702 21.611 0.412 21.611"></polygon>
            <polygon id="Fill-50" fill="#002B7F" points="0.4124 27.8716 7.5574 27.8716 14.7024 27.8716 14.7024 26.8426 14.7024 25.8126 7.5574 25.8126 0.4124 25.8126 0.4124 26.8426"></polygon>
            <path d="M2.2615,34.2154 C2.4115,34.3694 2.5655,34.5174 2.7195,34.6544 C3.9135,35.7154 5.1845,36.2734 5.4995,36.2734" id="Fill-51" fill="#000000"></path>
            <path d="M14.7024,34.2154 L14.7024,35.2434 L14.7024,36.2734 L7.5574,36.2734 L5.4994,36.2734 C5.1844,36.2734 3.9134,35.7154 2.7204,34.6544 C2.5654,34.5174 2.4114,34.3694 2.2614,34.2154 L7.5574,34.2154 L14.7024,34.2154 Z" id="Fill-52" fill="#002B7F"></path>
            <path d="M14.7024,30.0132 L14.7024,31.0432 L14.7024,32.0722 L7.5574,32.0722 L0.8214,32.0722 C0.5664,31.4502 0.4124,30.7632 0.4124,30.0132 L7.5574,30.0132 L14.7024,30.0132 Z" id="Fill-53" fill="#002B7F"></path>
            <path d="M22.9666,39.815 C23.2246,38.425 25.3966,35.828 29.4346,35.828 L29.4346,1.044 L22.8736,1.044 L22.8426,1.044 L16.4726,1.044 L16.4726,35.828 C20.5086,35.828 22.6806,38.423 22.9396,39.815 L22.9526,39.865 L22.9666,39.815 Z" id="Stroke-54" stroke="#002B7F" stroke-width="0.914"></path>
            <path d="M0.4124,44.5464 C2.9374,42.6364 5.4254,42.1804 7.9044,42.1804 C10.6034,42.1804 11.5954,42.3984 15.4514,44.3634 C19.3074,46.3294 21.4434,46.2764 22.9094,46.2764 C24.3754,46.2764 26.4574,46.2024 30.3674,44.3144 C34.3904,42.3694 35.5634,42.1804 38.0924,42.1804 C40.5704,42.1804 42.9624,42.6364 45.4554,44.5464" id="Stroke-55" stroke="#002B7F" stroke-width="0.915"></path>
        </g>
    </g>
</svg>